<svg width="86" height="88" viewBox="0 0 86 88" fill="none" xmlns="http://www.w3.org/2000/svg">
<path d="M44.521 51.5739L74.1989 19.2824H13.0416V32.7375H43.6223L13.0416 65.9253H84.9958V69.51C84.9958 71.809 84.5417 74.0855 83.6595 76.2095C82.7772 78.3335 81.484 80.2634 79.8538 81.8891C78.2236 83.5147 76.2882 84.8043 74.1582 85.6841C72.0283 86.5639 69.7454 87.0167 67.4399 87.0167H17.5559C12.8998 87.0167 8.43439 85.1722 5.14202 81.8891C1.84964 78.6059 0 74.153 0 69.51L0 17.5067C0 12.8636 1.84964 8.41074 5.14202 5.1276C8.43439 1.84445 12.8998 0 17.5559 0L67.4566 0C72.1127 0 76.5781 1.84445 79.8705 5.1276C83.1629 8.41074 85.0125 12.8636 85.0125 17.5067V27.9274C85.0125 30.0115 85.0669 32.0081 84.5945 34.0339C83.8296 37.2059 82.0364 39.9111 80.1052 42.4996C78.5078 44.6747 76.6365 46.636 74.5375 48.3352C72.3806 50.0525 69.8267 51.353 67.0428 51.5698L44.521 51.5739Z" fill="#C9C52E"/>
</svg>
